<svg width="79" height="52" viewBox="0 0 79 52" fill="none" xmlns="http://www.w3.org/2000/svg">
<g clip-path="url(#clip0)">
<path d="M5.65084 51.996C5.61726 51.9922 5.50344 51.9805 5.39791 51.9699C4.43458 51.8738 3.40622 51.4821 2.59784 50.9035C1.38585 50.036 0.531776 48.7729 0.175533 47.321C-0.013769 46.5495 -0.0514082 45.6852 0.0696712 44.89C0.394305 42.7581 1.81139 40.9319 3.77716 40.1123C4.26774 39.9077 4.75462 39.7784 5.32814 39.7002C5.64605 39.6569 6.42033 39.6567 6.74105 39.6998C7.42123 39.7913 7.99772 39.9618 8.59004 40.2467C9.24181 40.5603 9.69284 40.8831 10.2388 41.4267C10.7161 41.9021 11.0108 42.2977 11.3525 42.9217L11.4252 43.0545L11.1676 43.2439C10.8127 43.5049 9.98031 44.0954 9.70921 44.2784L9.48525 44.4297L9.39312 44.2306C9.27921 43.9845 9.19812 43.8387 9.0668 43.6437C8.54211 42.8647 7.7054 42.3082 6.79338 42.1318C6.3108 42.0385 5.71668 42.0489 5.24092 42.159C4.74135 42.2746 4.19884 42.534 3.7844 42.8554C3.61735 42.985 3.3099 43.2881 3.17462 43.4566C2.44471 44.366 2.17585 45.5244 2.42619 46.6815C2.51286 47.0821 2.7372 47.6055 2.97124 47.9531C3.59065 48.8732 4.54009 49.4626 5.6155 49.5948C5.80562 49.6181 6.26356 49.6181 6.45369 49.5948C7.40607 49.4777 8.28607 48.9858 8.8874 48.2343C9.0645 48.0129 9.1879 47.8214 9.32865 47.5493C9.39032 47.4301 9.44593 47.3325 9.45223 47.3325C9.45853 47.3325 9.897 47.6401 10.4266 48.0161L11.3896 48.6998L11.292 48.8832C11.0895 49.264 10.7411 49.7426 10.4167 50.0858C9.86389 50.6706 9.32547 51.068 8.62493 51.4082C8.01989 51.7021 7.37874 51.8895 6.69744 51.9717C6.54469 51.9901 5.75945 52.0084 5.65084 51.996ZM13.8841 45.7718V39.7802H15.0528H16.2215V41.9306V44.0809H19.2741H22.3267V41.9306V39.7802H23.4954H24.6641V45.7718V51.7633H23.4954H22.3267V49.1274V46.4914H19.2741H16.2215V49.1274V51.7633H15.0528H13.8841V45.7718ZM27.0256 50.7011C27.2861 50.1169 28.4881 47.4207 29.6968 44.7096L31.8943 39.7802L33.534 39.7804L35.1737 39.7806L37.8301 45.6982C39.2911 48.953 40.5015 51.6491 40.5199 51.6896L40.5532 51.7633H39.1538H37.7544L37.2141 50.5755L36.6738 49.3877L33.5462 49.3919L30.4186 49.3962L29.8843 50.5797L29.35 51.7633H27.9509H26.5519L27.0256 50.7011ZM35.6852 46.9702C35.6753 46.9279 33.5518 42.209 33.5427 42.2091C33.5362 42.2092 31.5195 46.8885 31.4873 46.9782C31.4837 46.9881 32.2902 46.9943 33.5861 46.9943C35.3764 46.9943 35.69 46.9907 35.6852 46.9702ZM42.4388 45.7718V39.7802L44.0828 39.7806L45.7269 39.7809L48.2998 43.3735L50.8727 46.9661L50.8771 43.3731L50.8815 39.7802H52.0588H53.2362V45.7719V51.7636L52.2914 51.7591L51.3465 51.7546L48.0832 47.2508C46.2883 44.7737 44.8139 42.7467 44.8067 42.7463C44.7995 42.7459 44.7937 44.7746 44.7937 47.2545V51.7633H43.6162H42.4388V45.7718ZM57.4924 45.7718V39.7802H61.705H65.9175V40.9854V42.1907H62.8824H59.8472V43.3873V44.5838H62.6556H65.464V45.7891V46.9943H62.6556H59.8472V48.1909V49.3875H63.3185H66.7897V50.5754V51.7633H62.141H57.4924V45.7718ZM70.0865 45.7718V39.7802H71.2639H72.4413V44.5838V49.3875H75.7207H79V50.5754V51.7633H74.5432H70.0865V45.7718Z" fill="black"/>
<path d="M29.7319 36.7326C27.2159 36.6169 24.4142 35.8574 22.1556 34.6788C20.4216 33.774 19.0473 32.7615 17.6076 31.328C16.48 30.2053 15.6481 29.1711 14.9439 28.0166L14.6356 27.5111L15.073 27.2805C15.9252 26.8312 19.81 24.8536 19.8404 24.8536C19.8574 24.8536 20.0179 25.0707 20.1971 25.3362C22.2216 28.3361 25.3888 30.2875 29.0951 30.8187C29.743 30.9115 31.6914 30.8967 32.397 30.7936C33.1821 30.6788 34.1238 30.466 34.7219 30.2681C34.7608 30.2552 34.6865 30.1351 34.5154 29.9346C33.1906 28.3821 31.9829 26.2512 31.3035 24.2674C30.0744 20.679 29.9869 16.827 31.0523 13.2079C31.7138 10.9604 32.8523 8.77897 34.2941 6.99628C34.5089 6.73069 34.6847 6.49636 34.6847 6.47555C34.6847 6.40482 33.5592 6.10698 32.8215 5.98251C31.6818 5.7902 29.8976 5.76637 28.8676 5.92967C27.1345 6.20447 25.3754 6.84976 24.0008 7.71497C22.469 8.67916 21.1916 9.91823 20.1722 11.4287L19.7222 12.0957L19.1492 11.7966C18.8341 11.6322 17.6636 11.0291 16.548 10.4565C15.4325 9.88387 14.5163 9.41233 14.5121 9.40861C14.4943 9.39305 15.1927 8.28872 15.4802 7.87778C16.353 6.6301 17.9029 4.97773 19.048 4.07407C22.0423 1.71111 25.3711 0.380314 29.1187 0.0479538C29.8139 -0.0137061 31.5377 -0.0142506 32.2083 0.0469653C34.5876 0.264141 36.6271 0.837656 38.7341 1.88203L39.7411 2.38116L40.0785 2.19032C40.6232 1.88214 41.5911 1.43748 42.3262 1.15767C44.3886 0.372592 46.4657 -0.00111258 48.7606 2.48782e-06C50.3631 0.000781126 51.7001 0.157326 53.1514 0.514126C56.4303 1.3202 59.2265 2.86613 61.6357 5.2048C62.9418 6.4727 63.9654 7.76723 64.7918 9.19641L64.9171 9.41302L62.8786 10.4585C61.7575 11.0335 60.5847 11.6372 60.2724 11.8L59.7046 12.096L59.2754 11.4524C57.1577 8.27646 53.6937 6.20887 49.9021 5.85764C48.7796 5.75366 47.1129 5.84941 46.0997 6.07607C45.5783 6.19272 44.7318 6.43317 44.732 6.46457C44.7321 6.48098 44.8706 6.66322 45.0398 6.86956C47.2126 9.52002 48.5692 12.7509 49.0076 16.3188C49.1122 17.1704 49.1262 19.3445 49.0324 20.1876C48.6365 23.7477 47.2824 27.0332 45.1211 29.6782C44.6311 30.2778 44.652 30.2363 44.8091 30.2966C44.8833 30.3251 45.2306 30.4206 45.5808 30.5089C47.3609 30.9573 49.277 31.0206 51.0761 30.6905C54.3483 30.0902 57.2954 28.1663 59.1909 25.3929C59.3672 25.1349 59.5264 24.9066 59.5447 24.8855C59.5629 24.8643 59.9999 25.0573 60.5156 25.3143C61.5373 25.8235 64.7376 27.4699 64.7719 27.504C64.8291 27.5609 63.8091 29.066 63.1837 29.8478C62.5915 30.588 61.0393 32.1294 60.2977 32.7136C57.6178 34.825 54.6103 36.116 51.2976 36.5769C47.4941 37.1062 43.4659 36.3974 40.1884 34.6223L39.7252 34.3714L39.1507 34.6736C36.3042 36.1709 33.039 36.8847 29.7319 36.7326ZM40.3584 26.3307C41.9447 24.3786 42.9344 22.0106 43.1783 19.584C43.2602 18.7695 43.2116 17.1105 43.0841 16.3689C42.7332 14.3282 41.9825 12.5791 40.7715 10.9808C40.5434 10.6798 40.2114 10.2774 40.0335 10.0867L39.7102 9.7398L39.4102 10.0632C39.0147 10.4895 38.3556 11.3593 38.0235 11.8933C36.3369 14.6046 35.7862 17.9356 36.5004 21.106C36.9499 23.101 37.9833 25.1108 39.3759 26.6982L39.6966 27.0638L39.8369 26.9317C39.9141 26.8591 40.1488 26.5887 40.3584 26.3307Z" fill="black"/>
</g>
<defs>
<clipPath id="clip0">
<rect width="79" height="52" fill="white"/>
</clipPath>
</defs>
</svg>
